<svg xmlns="http://www.w3.org/2000/svg" width="160" height="160" viewBox="0 0 160 160"><g transform="translate(-3029 -4599)"><g transform="translate(3300 4599)"><circle cx="80" cy="80" r="80" transform="translate(-271)" fill="#303030"/></g><g transform="translate(3114.839 4465)"><g transform="translate(-128 147)"><g transform="translate(81.933 1.772)"><path d="M163.4,114.293H91.449a3.787,3.787,0,0,1-3.787-3.787V59.384A3.787,3.787,0,0,1,91.449,55.6H163.4a3.787,3.787,0,0,1,3.787,3.787v51.123a3.787,3.787,0,0,1-3.787,3.787Z" transform="translate(-87.662 -44.236)" fill="#fff5d7"/><path d="M153.04,108.771l-.915,3.39-7.061-.011c-.589-1.145-1.306-2.2-1.823-3.379H99.022a5.687,5.687,0,0,1-5.68-5.68V55.6H91.449a3.787,3.787,0,0,0-3.787,3.787v51.122a3.787,3.787,0,0,0,3.787,3.787H163.4a3.787,3.787,0,0,0,3.787-3.787v-1.735H153.04Z" transform="translate(-87.662 -44.236)" fill="#f5ebcd"/><path d="M239.968,312.113h7.574v24.615h-7.574Z" transform="translate(-203.993 -240.163)" fill="#ecbd83"/><path d="M239.968,304.1h7.574v9.467h-7.574Z" transform="translate(-203.993 -234.04)" fill="#e2a975"/><path d="M327.951,307.884l11.238,43.549h-7.822l-11.238-43.549,3.85-3.787Z" transform="translate(-265.22 -234.04)" fill="#f6d190"/><path d="M327.951,307.884l-3.972-3.787-3.85,3.787,1.466,5.68h7.822Z" transform="translate(-265.22 -234.04)" fill="#ecbd83"/><path d="M122.681,307.884l-11.238,43.549h7.822L130.5,307.884l-3.85-3.787Z" transform="translate(-105.826 -234.04)" fill="#f6d190"/><path d="M154.282,307.884l-1.466,5.68h7.822l1.466-5.68-3.85-3.787Z" transform="translate(-137.427 -234.04)" fill="#ecbd83"/><path d="M245.648,7.5h-3.787a1.893,1.893,0,0,0-1.893,1.893v9.467h7.574V9.393A1.894,1.894,0,0,0,245.648,7.5Z" transform="translate(-203.993 -7.5)" fill="#f6d190"/><g transform="translate(9.467 7.574)"><path d="M186.438,288.065h-56.8a1.893,1.893,0,0,0-1.893,1.893v3.787a1.893,1.893,0,0,0,1.893,1.893h56.8a1.893,1.893,0,0,0,1.893-1.893v-3.787A1.893,1.893,0,0,0,186.438,288.065Z" transform="translate(-127.742 -229.369)" fill="#ffe09f"/><path d="M220.272,47.139H193.764a1.893,1.893,0,0,1-1.893-1.893V41.458a1.893,1.893,0,0,1,1.893-1.893h26.508a1.893,1.893,0,0,1,1.893,1.893v3.787A1.893,1.893,0,0,1,220.272,47.139Z" transform="translate(-176.724 -39.565)" fill="#ffe09f"/></g></g><g transform="translate(80.161 0)"><path d="M157.67,11.361H138.613v-.122a3.669,3.669,0,0,0-3.665-3.665h-7.7V3.665A3.669,3.669,0,0,0,123.588,0H119.8a3.669,3.669,0,0,0-3.665,3.665V7.574h-7.7a3.669,3.669,0,0,0-3.665,3.665v.122H85.719a5.565,5.565,0,0,0-5.558,5.558V68.041A5.565,5.565,0,0,0,85.719,73.6h3.909v.122a3.669,3.669,0,0,0,3.665,3.665H96.5L85.834,118.721a1.772,1.772,0,0,0,1.715,2.214h7.822a1.772,1.772,0,0,0,1.715-1.329l5.032-19.5H141.27l5.032,19.5a1.772,1.772,0,0,0,1.715,1.329h7.822a1.772,1.772,0,0,0,1.715-2.214L146.887,77.386H150.1a3.669,3.669,0,0,0,3.665-3.665V73.6h3.909a5.565,5.565,0,0,0,5.558-5.558V16.919a5.564,5.564,0,0,0-5.558-5.558Zm-37.99-7.7a.122.122,0,0,1,.122-.122h3.787a.122.122,0,0,1,.122.122V7.574h-4.031Zm-11.361,7.574a.122.122,0,0,1,.122-.122h26.508a.122.122,0,0,1,.122.122v3.787a.122.122,0,0,1-.122.122H108.441a.122.122,0,0,1-.122-.122ZM94,117.392H89.837l10.324-40.006h4.163Zm13.983-40.006h8.153V96.565h-13.1Zm15.727,0V96.565h-4.031V77.387Zm3.543,19.178V77.387h8.153l4.949,19.178Zm26.3,20.828h-4.163L139.065,77.387h4.163Zm6.133-49.351a2.018,2.018,0,0,1-2.015,2.015h-3.909v-.122A3.669,3.669,0,0,0,150.1,66.27h-3.787a1.772,1.772,0,1,0,0,3.543H150.1a.122.122,0,0,1,.122.122v3.787a.122.122,0,0,1-.122.122h-56.8a.122.122,0,0,1-.122-.122V69.935a.122.122,0,0,1,.122-.122h45.442a1.772,1.772,0,0,0,0-3.543H93.293a3.669,3.669,0,0,0-3.665,3.665v.122H85.719A2.018,2.018,0,0,1,83.7,68.041V16.919A2.018,2.018,0,0,1,85.719,14.9h19.056v.122a3.669,3.669,0,0,0,3.665,3.665h26.508a3.669,3.669,0,0,0,3.665-3.665V14.9H157.67a2.018,2.018,0,0,1,2.015,2.015Z" transform="translate(-80.161 0)"/><path d="M178.093,132.293A10.522,10.522,0,0,0,167.582,142.8a1.772,1.772,0,0,0,3.543,0,6.967,6.967,0,1,1,13.935,0,9.389,9.389,0,0,1-9.589,9.152c-4.967,0-10.481-5.3-15.813-10.429-5.838-5.614-11.875-11.418-18.269-11.418a13.282,13.282,0,0,0-9.261,3.694,12.4,12.4,0,0,0-3.871,9,10.51,10.51,0,1,0,21.021,0,1.772,1.772,0,0,0-3.543,0,6.967,6.967,0,1,1-13.935,0,8.888,8.888,0,0,1,2.784-6.447,9.755,9.755,0,0,1,6.805-2.7c4.967,0,10.481,5.3,15.813,10.429,5.838,5.614,11.875,11.418,18.269,11.418A12.934,12.934,0,0,0,188.6,142.8a10.51,10.51,0,0,0-10.51-10.51Z" transform="translate(-116.897 -99.376)"/></g></g></g></g></svg>