<svg xmlns="http://www.w3.org/2000/svg" width="160" height="160" viewBox="0 0 160 160"><g transform="translate(-2606 -4580)"><g transform="translate(2606 4580)"><circle cx="80" cy="80" r="80" fill="#303030"/></g><g transform="translate(2581.842 4607)"><path d="M72.658,7.5H148V109.621H72.658Z" transform="translate(-5.959 -5.959)" fill="#ffc250"/><path d="M235,7.5h37.672V109.621H235Z" transform="translate(-134.946 -5.959)" fill="#ebb044"/><path d="M256,7.5h37.672V109.621H256Z" transform="translate(-151.629 -5.959)" fill="#fff0af"/><path d="M418.345,7.5h4.314V109.621h-4.314Z" transform="translate(-280.616 -5.959)" fill="#ffe07d"/><path d="M191.688,32.373H174.794L164.983,7.5H201.5Z" transform="translate(-79.314 -5.959)" fill="#9dc6fb"/><path d="M277.263,7.5l-9.811,24.873H273.1L282.914,7.5Z" transform="translate(-160.728 -5.959)" fill="#80b4fb"/><path d="M180.952,128.552h16.894l8.219,47.017-16.223,12.62-17.109-12.62Z" transform="translate(-85.471 -102.138)" fill="#75cef9"/><path d="M227.5,132.807l-.744-4.254H209.858l-.744,4.254h9.116a5.037,5.037,0,0,1,4.962,4.17L228.965,170a6.28,6.28,0,0,1-2.33,6.038l-11.856,9.223,3.969,2.928,16.223-12.62Z" transform="translate(-114.377 -102.139)" fill="#6bbef6"/><path d="M91.494,27.754,110.33,7.5H72.658Z" transform="translate(-5.959 -5.959)" fill="#e7ecf1"/><path d="M274.836,27.754,293.672,7.5H256Z" transform="translate(-151.629 -5.959)" fill="#e7ecf1"/><path d="M166.667,7.5,150.643,24.73l2.812,3.024L172.291,7.5Z" transform="translate(-67.92 -5.959)" fill="#dae4ea"/><path d="M350.009,7.5,333.985,24.73l2.812,3.024L355.633,7.5Z" transform="translate(-213.59 -5.959)" fill="#dae4ea"/><g transform="translate(65.158)"><path d="M356.069,240.038H345.454a1.541,1.541,0,0,0,0,3.082h10.615a1.541,1.541,0,0,0,0-3.082Z" transform="translate(-286.636 -190.716)"/><path d="M343.253,48.8V46.871a1.541,1.541,0,0,0-3.082,0V48.8a1.541,1.541,0,0,0,3.082,0Z" transform="translate(-283.663 -36.016)"/><path d="M159.911,48.8V46.871a1.541,1.541,0,1,0-3.082,0V48.8a1.541,1.541,0,1,0,3.082,0Z" transform="translate(-137.993 -36.016)"/><path d="M143.584,1.541A1.545,1.545,0,0,0,142.043,0H66.7a1.544,1.544,0,0,0-1.541,1.541V103.662A1.541,1.541,0,0,0,66.7,105.2H87.262a1.541,1.541,0,1,0,0-3.082H68.24V5.461L72.364,9.9a1.541,1.541,0,0,0,2.257-2.1L70.237,3.082h30.6l-15.3,16.45-6.718-7.224a1.541,1.541,0,0,0-2.257,2.1l7.847,8.438a1.541,1.541,0,0,0,2.257,0L90.7,18.5l3.185,8.075-8.144,46.59a1.541,1.541,0,0,0,.6,1.506L102.83,86.83v15.291H93.423a1.541,1.541,0,1,0,0,3.082h48.62a1.541,1.541,0,0,0,1.541-1.541V1.541Zm-5.079,1.541-15.3,16.45-15.3-16.45ZM104.371,3.8,115.09,15.33l-3.764,9.543H96.53L93.03,16Zm1.541,98.317V86.8L121.54,74.648a1.541,1.541,0,0,0,.572-1.482L118.237,51a1.541,1.541,0,1,0-3.036.531l3.715,21.254-14.57,11.334-15.4-11.361,7.832-44.8h14.3l3.06,17.505a1.541,1.541,0,1,0,3.036-.531l-3.208-18.353,3.449-8.744,4.662,5.013a1.541,1.541,0,0,0,2.257,0L140.5,5.461v96.66Z" transform="translate(-65.158)"/></g></g></g></svg>