<svg xmlns="http://www.w3.org/2000/svg" xmlns:xlink="http://www.w3.org/1999/xlink" width="160" height="160" viewBox="0 0 160 160"><defs><clipPath id="a"><circle cx="59.5" cy="59.5" r="59.5" fill="#303030"/></clipPath></defs><g transform="translate(-2827 -4599)"><g transform="translate(3098 4599)"><circle cx="80" cy="80" r="80" transform="translate(-271)" fill="#303030"/></g><g transform="translate(3119 4620)"><g transform="translate(-271)" clip-path="url(#a)"><g transform="translate(7.007)"><path d="M14.636,115.926v6.449a7.059,7.059,0,0,0,7.052,7.066h87.981a7.059,7.059,0,0,0,7.052-7.066v-6.449Z" transform="translate(-13.185 -32.142)" fill="#6d7486"/><path d="M109.669,37.9H21.688a7.059,7.059,0,0,0-7.052,7.066V95.933H116.72V44.971a7.059,7.059,0,0,0-7.052-7.066Z" transform="translate(-13.185 -12.149)" fill="#f4f8fc"/><path d="M65.125,134.1H92.107v20.25H65.125Z" transform="translate(-26.123 -36.799)" fill="#4a5160"/><path d="M100.563,29.932a26.093,26.093,0,0,0-51.777-1.807c-.082.534-.15,1.074-.2,1.621-.077.813-.119,1.637-.119,2.472A26.177,26.177,0,0,0,60.617,54.374a4.365,4.365,0,0,1,2.044,3.677v11.44H86.474l.068-12.216A4.3,4.3,0,0,1,88.485,54.4a26.161,26.161,0,0,0,12.182-22.151q0-1.168-.1-2.313Z" transform="translate(-21.854 -3.99)" fill="#fbb040"/><path d="M91.364,91.344v3.392a2.915,2.915,0,0,1-2.913,2.92H70.464a2.915,2.915,0,0,1-2.913-2.92V91.344Z" transform="translate(-26.744 -25.843)" fill="#6d7486"/><path d="M86.975,32.886a3.728,3.728,0,0,1-1.57,6.459,3.626,3.626,0,0,1-.849.1,3.728,3.728,0,1,1,2.419-6.558Z" transform="translate(-30.145 -10.633)" fill="#f43b3b"/><g transform="translate(39.571 11.19)"><path d="M96.875,22.765A2.879,2.879,0,1,1,94,25.643,2.879,2.879,0,0,1,96.875,22.765Z" transform="translate(-73.094 -19.46)" fill="#49bdff"/><path d="M75.994,18.322A2.879,2.879,0,1,1,73.123,21.2,2.879,2.879,0,0,1,75.994,18.322Z" transform="translate(-67.743 -18.322)" fill="#49bdff"/><ellipse cx="2.871" cy="2.879" rx="2.871" ry="2.879" transform="translate(0 14.742)" fill="#49bdff"/><path d="M89.036,51.345a2.88,2.88,0,1,1-2.051,2.76A2.88,2.88,0,0,1,89.036,51.345Z" transform="translate(-71.295 -26.752)" fill="#49bdff"/></g><path d="M21.893,122.375v-6.449H14.636v6.449a7.059,7.059,0,0,0,7.052,7.066h7.257a7.059,7.059,0,0,1-7.052-7.066Z" transform="translate(-13.185 -32.142)" fill="#b0b5ca"/><path d="M28.945,37.9H21.688a7.059,7.059,0,0,0-7.052,7.066V95.933h7.257V44.971A7.059,7.059,0,0,1,28.945,37.9Z" transform="translate(-13.185 -12.149)" fill="#ccd3df"/><path d="M67.874,54.371A26.177,26.177,0,0,1,55.726,32.215c0-.835.041-1.659.119-2.472.048-.547.116-1.086.2-1.621A26.022,26.022,0,0,1,78.179,6.313,26.05,26.05,0,0,0,48.786,28.122c-.082.534-.15,1.074-.2,1.621-.077.813-.119,1.637-.119,2.472A26.177,26.177,0,0,0,60.617,54.371a4.365,4.365,0,0,1,2.044,3.677v11.44h7.257V58.048A4.365,4.365,0,0,0,67.874,54.371Z" transform="translate(-21.854 -3.987)" fill="#fff655"/><path d="M77.179,83.379H77.2a1.451,1.451,0,1,0,0-2.9h-.024a1.451,1.451,0,0,0,0,2.9Z" transform="translate(-28.84 -23.058)" fill="#284268"/><path d="M75.494,25.037a4.3,4.3,0,0,0,1.269-.191l1.817,3.078a5.169,5.169,0,0,0,3.287,8.965l1.393,4.8a4.319,4.319,0,1,0,2.783-.825l-1.356-4.675A5.167,5.167,0,0,0,86.6,29.207l2.179-1.5a4.285,4.285,0,0,0,2.244.636,4.345,4.345,0,1,0-4.075-2.9l-2.462,1.7a5.06,5.06,0,0,0-3.3-.513L79.1,23.092a4.319,4.319,0,1,0-3.6,1.945ZM87.223,45.181a1.42,1.42,0,1,1-1.42-1.427,1.42,1.42,0,0,1,1.42,1.427Zm3.8-22.6a1.427,1.427,0,1,1-1.42,1.427,1.427,1.427,0,0,1,1.42-1.427ZM84.351,31.72a2.268,2.268,0,1,1-2.267-2.276,2.268,2.268,0,0,1,2.267,2.276ZM75.494,19.281a1.427,1.427,0,1,1-1.42,1.427,1.427,1.427,0,0,1,1.42-1.427Z" transform="translate(-27.672 -6.638)" fill="#284268"/><path d="M68.26,44.85a4.33,4.33,0,1,0-4.323-4.33A4.33,4.33,0,0,0,68.26,44.85Zm0-5.757a1.427,1.427,0,1,1-1.42,1.427,1.427,1.427,0,0,1,1.42-1.427Z" transform="translate(-25.818 -11.71)" fill="#284268"/><path d="M109.154,27.58l-16.462.164a27.6,27.6,0,0,0-39.1-21.212c-8.436-3.478-18.268-4.938-21.74-.463-2.8,3.613-1.709,9.749,3.083,17.272.888,1.394,1.885,2.81,2.979,4.239H21.188a8.519,8.519,0,0,0-8.5,8.517V93.51a8.519,8.519,0,0,0,8.5,8.515H50.236v17.348H43.5a1.451,1.451,0,0,0,0,2.9H86.911a1.451,1.451,0,0,0,0-2.9H80.12V102.026h29.048a8.519,8.519,0,0,0,8.5-8.516V36.1a8.523,8.523,0,0,0-8.518-8.516ZM90.461,43.041c5.638,6.953,7.523,12.153,6.349,13.668a5.417,5.417,0,0,1-3.6,1.828,14.373,14.373,0,0,1-3.408.073,25.592,25.592,0,0,1-3.176-.49,40.879,40.879,0,0,1-4.9-1.408c-.82-.288-1.655-.608-2.5-.951a2.9,2.9,0,0,1,.867-.853A27.565,27.565,0,0,0,90.461,43.041ZM65.391,6.8l.348,0a24.746,24.746,0,0,1,12.8,45.65,5.786,5.786,0,0,0-2,2.142A99.222,99.222,0,0,1,57.383,42.713a99.131,99.131,0,0,1-16.23-15.7A24.593,24.593,0,0,1,65.391,6.8ZM75.853,60.693H66.371a1.451,1.451,0,1,0,0,2.9h9.483v3.728H54.943V63.6h.664a1.451,1.451,0,1,0,0-2.9h-.664V57.336a5.791,5.791,0,0,0-2.716-4.9A24.646,24.646,0,0,1,40.75,31.5c0-.145,0-.29.006-.435A105.807,105.807,0,0,0,55.6,45,101.444,101.444,0,0,0,75.853,57.478ZM56.4,73.635a1.466,1.466,0,0,1-1.461-1.467V70.226h20.91v1.942a1.466,1.466,0,0,1-1.461,1.467ZM34.142,7.848c1.655-2.132,7.743-2.529,16.167.523a27.638,27.638,0,0,0-11.44,15.621q-.789-1.113-1.489-2.209c-4.025-6.32-5.205-11.4-3.238-13.934ZM21.188,30.483H37.869c-.012.339-.021.677-.021,1.018A27.534,27.534,0,0,0,50.67,54.885a2.9,2.9,0,0,1,1.37,2.45v9.989H49.984a1.451,1.451,0,1,0,0,2.9h2.056v1.942a4.372,4.372,0,0,0,4.364,4.37h2a7.494,7.494,0,0,0,13.76,2.477A1.452,1.452,0,0,0,69.69,77.5a4.588,4.588,0,0,1-8.286-.965h12.99a4.372,4.372,0,0,0,4.363-4.37V70.227h2.489a1.451,1.451,0,1,0,0-2.9H78.756V58.7q1.016.4,2.008.75A43.725,43.725,0,0,0,86.02,60.96a28.476,28.476,0,0,0,3.54.544q.9.076,1.734.076a15.312,15.312,0,0,0,2.371-.174A8.19,8.19,0,0,0,99.1,58.49c3.582-4.616-4.169-14.677-7.448-18.552a27.833,27.833,0,0,0,1.294-8.406c0-.3-.007-.591-.016-.885l16.235-.162a5.612,5.612,0,0,1,5.6,5.611V85.608H15.588V36.1a5.612,5.612,0,0,1,5.6-5.613Zm56.029,88.89H53.139V102.026H77.217Zm31.951-20.25H21.188a5.612,5.612,0,0,1-5.6-5.613v-5h99.181v5a5.612,5.612,0,0,1-5.6,5.613Z" transform="translate(-12.685 -3.276)" fill="#284268"/></g></g></g></g></svg>